<?xml version="1.0" encoding="UTF-8"?>
<svg width="52px" height="59px" viewBox="0 0 52 59" version="1.1" xmlns="http://www.w3.org/2000/svg" xmlns:xlink="http://www.w3.org/1999/xlink">
    <!-- Generator: Sketch 60.1 (88133) - https://sketch.com -->
    <title>CAFEBARBLACKI966</title>
    <desc>Created with Sketch.</desc>
    <g id="Page-1" stroke="none" stroke-width="1" fill="none" fill-rule="evenodd">
        <g id="Cafe-Bar-Black---Mobile" transform="translate(-34.000000, -15.000000)" fill="#000000" fill-rule="nonzero">
            <path d="M39.888,27.272 C40.736,27.272 41.776,26.76 42.496,26.76 C42.912,26.76 43.152,27.048 43.184,27.24 C43.2,27.256 43.408,27.256 43.408,27.24 L43.408,23.432 C43.408,23.4 43.184,23.4 43.184,23.432 C43.184,25.528 41.744,27.032 39.888,27.032 C39.2,27.032 38.448,26.888 37.936,26.424 C37.152,25.672 36.72,24.072 36.72,21.336 C36.72,18.6 37.152,16.984 37.936,16.232 C38.448,15.784 39.12,15.64 39.808,15.64 C41.312,15.64 42.896,17.288 42.896,18.872 C42.896,18.904 43.12,18.904 43.12,18.872 L43.12,15.432 C43.12,15.4 42.896,15.4 42.896,15.432 C42.864,15.608 42.576,15.816 42.128,15.816 C41.424,15.816 40.544,15.384 39.808,15.384 C36.944,15.384 34.864,18.152 34.864,21.336 C34.864,24.504 37.008,27.272 39.888,27.272 Z M46.912,27 C46.944,27 46.944,26.744 46.912,26.744 L45.584,26.744 C45.504,26.744 45.52,26.648 45.712,26.072 L46.688,23.256 L50.352,23.256 L51.536,26.696 C51.552,26.712 51.52,26.744 51.472,26.744 L50.096,26.744 C50.064,26.744 50.064,27 50.096,27 L54.864,27 C54.896,27 54.896,26.744 54.864,26.744 L53.536,26.744 C53.472,26.744 53.424,26.712 53.424,26.696 L49.376,15.432 C49.36,15.384 49.152,15.384 49.136,15.432 L45.472,26.072 C45.28,26.696 45.248,26.744 45.104,26.744 L43.92,26.744 C43.904,26.744 43.904,27 43.92,27 L46.912,27 Z M50.288,23 L46.768,23 L48.544,17.832 L50.288,23 Z M59.872,27 C59.904,27 59.904,26.744 59.872,26.744 L58.528,26.744 C58.448,26.744 58.416,26.728 58.416,26.68 L58.416,21.304 L58.96,21.304 C60.176,21.304 60.896,22.04 60.896,23.128 C60.896,23.176 61.136,23.176 61.136,23.128 L61.136,19.224 C61.136,19.192 60.896,19.192 60.896,19.224 C60.896,20.328 60.176,21.048 58.96,21.048 L58.416,21.048 L58.416,15.976 C58.416,15.928 58.448,15.912 58.528,15.912 L60.16,15.912 C62.064,15.912 62.864,17.192 62.864,18.68 C62.864,18.728 63.104,18.728 63.104,18.68 L63.104,15.704 C63.104,15.688 63.088,15.656 63.056,15.656 L55.248,15.656 C55.216,15.656 55.216,15.912 55.248,15.912 L56.592,15.912 C56.64,15.912 56.672,15.928 56.672,15.976 L56.672,26.68 C56.672,26.728 56.64,26.744 56.592,26.744 L55.248,26.744 C55.216,26.744 55.216,27 55.248,27 L59.872,27 Z M73.28,27 C73.312,27 73.328,26.984 73.328,26.952 L73.328,23.656 C73.328,23.624 73.104,23.624 73.104,23.656 C73.104,25.304 72.224,26.744 69.712,26.744 L67.968,26.744 C67.888,26.744 67.856,26.728 67.856,26.68 L67.856,21.304 L68.448,21.304 C69.664,21.304 70.352,22.04 70.352,23.128 C70.352,23.176 70.56,23.176 70.56,23.128 L70.56,19.224 C70.56,19.192 70.352,19.192 70.352,19.224 C70.352,20.328 69.664,21.048 68.448,21.048 L67.856,21.048 L67.856,15.976 C67.856,15.928 67.888,15.912 67.968,15.912 L69.664,15.912 C71.568,15.912 72.304,17.192 72.304,18.68 C72.304,18.728 72.544,18.728 72.544,18.68 L72.544,15.704 C72.544,15.688 72.528,15.656 72.496,15.656 L64.688,15.656 C64.656,15.656 64.656,15.912 64.688,15.912 L66.016,15.912 C66.08,15.912 66.112,15.928 66.112,15.976 L66.112,26.68 C66.112,26.728 66.08,26.744 66.016,26.744 L64.688,26.744 C64.656,26.744 64.656,27 64.688,27 L73.28,27 Z M39.728,41 C42.112,41 43.296,39.512 43.296,37.992 C43.296,36.088 41.584,34.952 39.664,34.952 C40.896,34.952 42.512,33.816 42.512,32.28 C42.512,30.504 40.848,29.656 39.008,29.656 L34.704,29.656 C34.656,29.656 34.656,29.912 34.704,29.912 L36.032,29.912 C36.096,29.912 36.128,29.928 36.128,29.976 L36.128,40.68 C36.128,40.728 36.096,40.744 36.032,40.744 L34.704,40.744 C34.656,40.744 34.656,41 34.704,41 L39.728,41 Z M39.264,34.824 L37.872,34.824 L37.872,29.976 C37.872,29.928 37.904,29.912 37.984,29.912 L38.752,29.912 C40.288,29.912 40.864,30.456 40.864,32.344 C40.864,34.312 40.4,34.824 39.264,34.824 Z M39.328,40.744 L37.984,40.744 C37.904,40.744 37.872,40.728 37.872,40.68 L37.872,35.064 L39.104,35.064 C40.64,35.064 41.584,35.528 41.584,38.088 C41.584,40.184 40.752,40.744 39.328,40.744 Z M46.848,41 C46.88,41 46.88,40.744 46.848,40.744 L45.52,40.744 C45.44,40.744 45.456,40.648 45.648,40.072 L46.624,37.256 L50.288,37.256 L51.472,40.696 C51.488,40.712 51.456,40.744 51.408,40.744 L50.032,40.744 C50,40.744 50,41 50.032,41 L54.8,41 C54.832,41 54.832,40.744 54.8,40.744 L53.472,40.744 C53.408,40.744 53.36,40.712 53.36,40.696 L49.312,29.432 C49.296,29.384 49.088,29.384 49.072,29.432 L45.408,40.072 C45.216,40.696 45.184,40.744 45.04,40.744 L43.856,40.744 C43.84,40.744 43.84,41 43.856,41 L46.848,41 Z M50.224,37 L46.704,37 L48.48,31.832 L50.224,37 Z M64.432,41.272 C65.088,41.272 65.52,41.032 65.84,40.712 C65.872,40.696 65.728,40.52 65.696,40.536 C65.488,40.776 65.248,40.888 64.864,40.888 C64.288,40.888 63.936,40.456 63.936,39.64 L63.936,38.2 C63.936,36.392 62.752,35.096 60.352,35.096 C62,35.096 63.472,33.928 63.472,32.44 C63.472,30.872 62.096,29.656 59.824,29.656 L55.168,29.656 C55.136,29.656 55.136,29.912 55.168,29.912 L56.512,29.912 C56.576,29.912 56.608,29.928 56.608,29.976 L56.608,40.68 C56.608,40.728 56.576,40.744 56.512,40.744 L55.168,40.744 C55.136,40.744 55.136,41 55.168,41 L60.096,41 L60.096,40.744 L58.464,40.744 C58.384,40.744 58.352,40.728 58.352,40.68 L58.352,35.224 L59.744,35.224 C61.12,35.224 62.128,35.72 62.128,37.128 L62.128,38.168 C62.128,40.456 63.168,41.272 64.432,41.272 Z M59.744,34.968 L58.352,34.968 L58.352,29.976 C58.352,29.928 58.384,29.912 58.464,29.912 L59.456,29.912 C60.864,29.912 61.712,30.504 61.712,32.504 C61.712,34.536 61.232,34.968 59.744,34.968 Z M39.728,55 C42.112,55 43.296,53.512 43.296,51.992 C43.296,50.088 41.584,48.952 39.664,48.952 C40.896,48.952 42.512,47.816 42.512,46.28 C42.512,44.504 40.848,43.656 39.008,43.656 L34.704,43.656 C34.656,43.656 34.656,43.912 34.704,43.912 L36.032,43.912 C36.096,43.912 36.128,43.928 36.128,43.976 L36.128,54.68 C36.128,54.728 36.096,54.744 36.032,54.744 L34.704,54.744 C34.656,54.744 34.656,55 34.704,55 L39.728,55 Z M39.264,48.824 L37.872,48.824 L37.872,43.976 C37.872,43.928 37.904,43.912 37.984,43.912 L38.752,43.912 C40.288,43.912 40.864,44.456 40.864,46.344 C40.864,48.312 40.4,48.824 39.264,48.824 Z M39.328,54.744 L37.984,54.744 C37.904,54.744 37.872,54.728 37.872,54.68 L37.872,49.064 L39.104,49.064 C40.64,49.064 41.584,49.528 41.584,52.088 C41.584,54.184 40.752,54.744 39.328,54.744 Z M52.976,55 C53.008,55 53.024,54.984 53.024,54.952 L53.024,51.512 C53.024,51.48 52.8,51.48 52.8,51.512 C52.8,53.144 52.016,54.744 49.712,54.744 L48.064,54.744 C48,54.744 47.968,54.728 47.968,54.68 L47.968,43.976 C47.968,43.928 48,43.912 48.064,43.912 L49.408,43.912 C49.44,43.912 49.44,43.656 49.408,43.656 L44.784,43.656 C44.752,43.656 44.752,43.912 44.784,43.912 L46.128,43.912 C46.176,43.912 46.208,43.928 46.208,43.976 L46.208,54.68 C46.208,54.728 46.176,54.744 46.128,54.744 L44.784,54.744 C44.752,54.744 44.752,55 44.784,55 L52.976,55 Z M56.192,55 C56.224,55 56.224,54.744 56.192,54.744 L54.864,54.744 C54.784,54.744 54.8,54.648 54.992,54.072 L55.968,51.256 L59.632,51.256 L60.816,54.696 C60.832,54.712 60.8,54.744 60.752,54.744 L59.376,54.744 C59.344,54.744 59.344,55 59.376,55 L64.144,55 C64.176,55 64.176,54.744 64.144,54.744 L62.816,54.744 C62.752,54.744 62.704,54.712 62.704,54.696 L58.656,43.432 C58.64,43.384 58.432,43.384 58.416,43.432 L54.752,54.072 C54.56,54.696 54.528,54.744 54.384,54.744 L53.2,54.744 C53.184,54.744 53.184,55 53.2,55 L56.192,55 Z M59.568,51 L56.048,51 L57.824,45.832 L59.568,51 Z M69.712,55.272 C70.56,55.272 71.6,54.76 72.32,54.76 C72.736,54.76 72.976,55.048 73.008,55.24 C73.024,55.256 73.232,55.256 73.232,55.24 L73.232,51.432 C73.232,51.4 73.008,51.4 73.008,51.432 C73.008,53.528 71.568,55.032 69.712,55.032 C69.024,55.032 68.272,54.888 67.76,54.424 C66.976,53.672 66.544,52.072 66.544,49.336 C66.544,46.6 66.976,44.984 67.76,44.232 C68.272,43.784 68.944,43.64 69.632,43.64 C71.136,43.64 72.72,45.288 72.72,46.872 C72.72,46.904 72.944,46.904 72.944,46.872 L72.944,43.432 C72.944,43.4 72.72,43.4 72.72,43.432 C72.688,43.608 72.4,43.816 71.952,43.816 C71.248,43.816 70.368,43.384 69.632,43.384 C66.768,43.384 64.688,46.152 64.688,49.336 C64.688,52.504 66.832,55.272 69.712,55.272 Z M79.28,55 C79.328,55 79.328,54.744 79.28,54.744 L77.952,54.744 C77.872,54.744 77.84,54.728 77.84,54.68 L77.84,49.384 L81.664,54.696 C81.68,54.712 81.68,54.744 81.616,54.744 L80.208,54.744 C80.176,54.744 80.176,55 80.208,55 L85.472,55 C85.504,55 85.504,54.744 85.472,54.744 L83.952,54.744 C83.92,54.744 83.84,54.712 83.824,54.696 L79.04,48.2 L82,44.584 C82.512,43.976 82.56,43.912 82.672,43.912 L83.872,43.912 C83.904,43.912 83.904,43.656 83.872,43.656 L80.864,43.656 C80.832,43.656 80.832,43.912 80.864,43.912 L82.096,43.912 C82.192,43.912 82.224,43.96 81.712,44.584 L77.84,49.288 L77.84,43.976 C77.84,43.928 77.872,43.912 77.952,43.912 L79.28,43.912 C79.328,43.912 79.328,43.656 79.28,43.656 L74.672,43.656 C74.624,43.656 74.624,43.912 74.672,43.912 L76,43.912 C76.064,43.912 76.096,43.928 76.096,43.976 L76.096,54.68 C76.096,54.728 76.064,54.744 76,54.744 L74.672,54.744 C74.624,54.744 74.624,55 74.672,55 L79.28,55 Z M39.328,69 C39.36,69 39.36,68.744 39.328,68.744 L37.968,68.744 C37.904,68.744 37.872,68.728 37.872,68.68 L37.872,57.976 C37.872,57.928 37.904,57.912 37.968,57.912 L39.328,57.912 C39.36,57.912 39.36,57.656 39.328,57.656 L34.704,57.656 C34.672,57.656 34.672,57.912 34.704,57.912 L36.032,57.912 C36.096,57.912 36.128,57.928 36.128,57.976 L36.128,68.68 C36.128,68.728 36.096,68.744 36.032,68.744 L34.704,68.744 C34.672,68.744 34.672,69 34.704,69 L39.328,69 Z M43.568,73.576 C46.144,73.576 47.632,70.264 47.632,66.92 C47.632,63.464 46.144,62.04 44.192,62.04 C42.304,62.04 40.928,63.576 40.928,65.448 C40.928,67.304 42.304,68.856 44.192,68.856 C44.88,68.856 45.648,68.584 46.08,67.976 C45.952,70.888 45.312,73.336 43.568,73.336 C43.056,73.336 42.768,73.048 42.768,72.52 C42.768,72.28 42.896,72.184 42.896,71.928 C42.896,71.64 42.704,71.352 42.208,71.352 C41.744,71.352 41.552,71.72 41.552,72.072 C41.552,72.632 42.208,73.576 43.568,73.576 Z M44.192,68.6 C43.76,68.6 43.376,68.52 43.056,68.28 C42.512,67.864 42.384,66.952 42.384,65.448 C42.384,63.72 42.512,63.032 43.056,62.616 C43.376,62.36 43.76,62.28 44.192,62.28 C44.64,62.28 45.104,62.36 45.424,62.616 C45.952,63.032 46.224,63.688 46.224,65.416 C46.224,66.008 46.16,67.384 46.096,67.528 C45.936,67.992 45.216,68.6 44.192,68.6 Z M52.8,69.144 C54.592,69.144 56.048,67.64 56.048,65.864 C56.048,64.104 54.592,62.6 52.8,62.6 C52.048,62.6 51.28,63.032 50.912,63.72 C50.992,60.696 51.76,57.848 53.344,57.848 C53.76,57.848 54,58.072 54,58.584 C54,58.84 53.888,58.936 53.888,59.176 C53.888,59.464 54.096,59.752 54.576,59.752 C55.072,59.752 55.248,59.384 55.248,59.032 C55.248,58.488 54.608,57.608 53.344,57.608 C51.008,57.608 49.488,60.968 49.488,64.296 C49.488,67.624 50.896,69.144 52.8,69.144 Z M52.8,68.888 C52.4,68.888 51.984,68.824 51.68,68.584 C51.184,68.2 50.912,67.576 50.912,65.944 L50.912,64.44 C50.912,63.768 51.712,62.856 52.8,62.856 C53.2,62.856 53.632,62.92 53.936,63.16 C54.416,63.544 54.608,64.456 54.608,65.864 C54.608,67.496 54.416,68.2 53.936,68.584 C53.632,68.824 53.2,68.888 52.8,68.888 Z M61.168,69.144 C62.96,69.144 64.416,67.64 64.416,65.864 C64.416,64.104 62.96,62.6 61.168,62.6 C60.416,62.6 59.648,63.032 59.28,63.72 C59.36,60.696 60.128,57.848 61.712,57.848 C62.128,57.848 62.368,58.072 62.368,58.584 C62.368,58.84 62.256,58.936 62.256,59.176 C62.256,59.464 62.464,59.752 62.944,59.752 C63.44,59.752 63.616,59.384 63.616,59.032 C63.616,58.488 62.976,57.608 61.712,57.608 C59.376,57.608 57.856,60.968 57.856,64.296 C57.856,67.624 59.264,69.144 61.168,69.144 Z M61.168,68.888 C60.768,68.888 60.352,68.824 60.048,68.584 C59.552,68.2 59.28,67.576 59.28,65.944 L59.28,64.44 C59.28,63.768 60.08,62.856 61.168,62.856 C61.568,62.856 62,62.92 62.304,63.16 C62.784,63.544 62.976,64.456 62.976,65.864 C62.976,67.496 62.784,68.2 62.304,68.584 C62,68.824 61.568,68.888 61.168,68.888 Z" id="CAFEBARBLACKI966"></path>
        </g>
    </g>
</svg>