
<svg width="25px" height="21px" viewBox="0 0 25 21" version="1.1" xmlns="http://www.w3.org/2000/svg" >

    <g id="Page-1" stroke="none" stroke-width="1" fill="none" fill-rule="evenodd" opacity="0.742373512">
        <g id="Cafe-Bar-Black---Mobile" transform="translate(-356.000000, -32.000000)" fill="#000000">
            <path d="M379.75,50 L357.25,50 C356.560008,50 356,50.6719988 356,51.4999755 C356,52.3280012 356.560008,53 357.25,53 L379.75,53 C380.439992,53 381,52.3280012 381,51.4999265 C381,50.6719988 380.439992,50 379.75,50 Z M357.25,35 L379.75,35 C380.439992,35 381,34.3280392 381,33.5 C381,32.6719608 380.439992,32 379.75,32 L357.25,32 C356.560008,32.000049 356,32.6720098 356,33.500049 C356,34.3280392 356.560008,35 357.25,35 Z M379.75,41 L357.25,41 C356.560008,41 356,41.6719988 356,42.5000245 C356,43.3280502 356.560008,44 357.25,44 L379.75,44 C380.439992,44 381,43.3280012 381,42.5000245 C381,41.6720478 380.439992,41 379.75,41 Z" id="Fill-1"></path>
        </g>
    </g>
</svg>