<?xml version="1.0" encoding="UTF-8"?>
<svg width="200px" height="22px" viewBox="0 0 200 22" version="1.1" xmlns="http://www.w3.org/2000/svg" xmlns:xlink="http://www.w3.org/1999/xlink">
    <!-- Generator: Sketch 53.2 (72643) - https://sketchapp.com -->
    <title>CAFEBARBLACK1966 2</title>
    <desc>Created with Sketch.</desc>
    <g id="Page-1" stroke="none" stroke-width="1" fill="none" fill-rule="evenodd">
        <g id="Cafe-Black-Large-Desktop-" transform="translate(-250.000000, -54.000000)" fill="#FFFFFF" fill-rule="nonzero">
            <g id="CAFEBARBLACK1966-2" transform="translate(250.000000, 54.000000)">
                <path d="M10.7748184,15.8534906 C10.7748184,15.8742211 10.3510896,15.8742211 10.330912,15.8534906 C10.2905569,15.6047245 10.008071,15.2315755 9.4834544,15.2315755 C8.61581921,15.2315755 7.24374496,15.8949516 6.1945117,15.8949516 C2.64326069,15.8949516 0,12.3085745 0,8.20393479 C0,4.0785646 2.56255044,0.4921875 6.09362389,0.4921875 C7.00161421,0.4921875 8.17191283,1.05191109 9.03954802,1.05191109 C9.58434221,1.05191109 9.94753834,0.782414548 9.98789346,0.55437901 C9.98789346,0.512918003 10.4116223,0.512918003 10.4116223,0.55437901 L10.4116223,5.44677783 C10.4116223,5.48823883 9.98789346,5.48823883 9.98789346,5.44677783 C9.98789346,3.39445798 7.94995964,0.989719583 6.09362389,0.989719583 C5.24616626,0.989719583 4.60048426,1.17629411 4.03551251,1.73601771 C3.16787732,2.68962087 2.76432607,4.74194071 2.76432607,8.20393479 C2.76432607,11.6866594 3.16787732,13.6975182 4.03551251,14.6511214 C4.60048426,15.252306 5.34705408,15.41815 6.1945117,15.41815 C8.45439871,15.41815 10.330912,13.1170641 10.330912,10.4013682 C10.330912,10.3599071 10.7748184,10.3599071 10.7748184,10.4013682 L10.7748184,15.8534906 Z M25.1210654,15.542533 L18.866021,15.542533 C18.8256659,15.542533 18.8256659,15.0450009 18.866021,15.0450009 L20.480226,15.0450009 C20.5407587,15.0450009 20.5811138,15.0035399 20.5609362,15.0035399 L19.2695722,10.8574392 L14.991929,10.8574392 L13.9023406,14.1743198 C13.6803874,14.9206179 13.6602098,15.0450009 13.7409201,15.0450009 L15.31477,15.0450009 C15.3753027,15.0450009 15.3753027,15.542533 15.31477,15.542533 L11.5012107,15.542533 C11.4608555,15.542533 11.4608555,15.0450009 11.5012107,15.0450009 L12.9943503,15.0450009 C13.1759483,15.0450009 13.2163035,14.9828094 13.4584342,14.1743198 L17.9176755,0.55437901 C17.9378531,0.4921875 18.3615819,0.4921875 18.3817595,0.55437901 L23.2849072,15.0035399 C23.2849072,15.0035399 23.3454399,15.0450009 23.4261501,15.0450009 L25.1210654,15.0450009 C25.1614205,15.0450009 25.1614205,15.542533 25.1210654,15.542533 Z M19.1283293,10.3599071 L17.1711057,4.0992951 L15.1533495,10.3599071 L19.1283293,10.3599071 Z M35.4116223,5.19801178 C35.4116223,5.21874229 34.9475383,5.21874229 34.9475383,5.19801178 C34.9475383,3.27007496 33.6763519,1.34213814 31.3559322,1.34213814 L29.8829701,1.34213814 C29.7820823,1.34213814 29.7619048,1.36286865 29.7619048,1.42506016 L29.7619048,7.74786371 L30.1856336,7.74786371 C31.6787732,7.74786371 32.7885391,6.58695552 32.7885391,5.15655078 C32.7885391,5.11508977 33.2324455,5.11508977 33.2324455,5.15655078 L33.2324455,10.8367087 C33.2324455,10.8989002 32.7885391,10.8989002 32.7885391,10.8367087 C32.7885391,9.42703449 31.6787732,8.24539579 30.1856336,8.24539579 L29.7619048,8.24539579 L29.7619048,14.9620789 C29.7619048,15.0242704 29.7820823,15.0450009 29.8829701,15.0450009 L31.5375303,15.0450009 C31.5778854,15.0450009 31.5778854,15.542533 31.5375303,15.542533 L25.4439064,15.542533 C25.4237288,15.542533 25.4237288,15.0450009 25.4439064,15.0450009 L27.1186441,15.0450009 C27.1589992,15.0450009 27.1993543,15.0242704 27.1993543,14.9620789 L27.1993543,1.42506016 C27.1993543,1.36286865 27.1589992,1.34213814 27.1186441,1.34213814 L25.4439064,1.34213814 C25.4237288,1.34213814 25.4237288,0.844606059 25.4439064,0.844606059 L35.3510896,0.844606059 C35.3914447,0.844606059 35.4116223,0.886067066 35.4116223,0.906797569 L35.4116223,5.19801178 Z M48.2647296,15.4803415 C48.2647296,15.5218025 48.2445521,15.542533 48.2041969,15.542533 L37.3486683,15.542533 C37.3083132,15.542533 37.3083132,15.0450009 37.3486683,15.0450009 L39.0032284,15.0450009 C39.0637611,15.0450009 39.1041162,15.0242704 39.1041162,14.9620789 L39.1041162,1.42506016 C39.1041162,1.36286865 39.0637611,1.34213814 39.0032284,1.34213814 L37.3486683,1.34213814 C37.3083132,1.34213814 37.3083132,0.844606059 37.3486683,0.844606059 L47.2356739,0.844606059 C47.3163842,0.844606059 47.3163842,0.886067066 47.3163842,0.906797569 L47.3163842,5.19801178 C47.3163842,5.21874229 46.8523002,5.21874229 46.8523002,5.19801178 C46.8523002,3.27007496 45.9241324,1.34213814 43.5633575,1.34213814 L41.787732,1.34213814 C41.6666667,1.34213814 41.6263115,1.36286865 41.6263115,1.42506016 L41.6263115,7.74786371 L42.0702179,7.74786371 C43.5633575,7.74786371 44.3502825,6.58695552 44.3502825,5.15655078 C44.3502825,5.11508977 44.7740113,5.11508977 44.7740113,5.15655078 L44.7740113,10.8367087 C44.7740113,10.8989002 44.3502825,10.8989002 44.3502825,10.8367087 C44.3502825,9.42703449 43.5633575,8.24539579 42.0702179,8.24539579 L41.6263115,8.24539579 L41.6263115,14.9620789 C41.6263115,15.0242704 41.6666667,15.0450009 41.787732,15.0450009 L43.6238902,15.0450009 C46.7110573,15.0450009 47.8410008,12.9097591 47.8410008,10.7745172 C47.8410008,10.7330562 48.2647296,10.7330562 48.2647296,10.7745172 L48.2647296,15.4803415 Z M63.9426957,11.6451984 C63.9426957,13.6145962 62.4899112,15.542533 59.5641646,15.542533 L53.2082324,15.542533 C53.1678773,15.542533 53.1678773,15.0450009 53.2082324,15.0450009 L54.8627926,15.0450009 C54.9233253,15.0450009 54.9636804,15.0242704 54.9636804,14.9620789 L54.9636804,1.42506016 C54.9636804,1.36286865 54.9233253,1.34213814 54.8627926,1.34213814 L53.2082324,1.34213814 C53.1678773,1.34213814 53.1678773,0.844606059 53.2082324,0.844606059 L58.6763519,0.844606059 C61.0976594,0.844606059 63.0347054,1.94332274 63.0347054,4.24440863 C63.0347054,6.23453696 61.2590799,7.7064027 59.826473,7.7064027 C61.9652946,7.7064027 63.9426957,9.17826845 63.9426957,11.6451984 Z M60.7142857,4.32733064 C60.7142857,1.88113123 60.1694915,1.34213814 58.3535109,1.34213814 L57.6472962,1.34213814 C57.566586,1.34213814 57.5262308,1.36286865 57.5262308,1.42506016 L57.5262308,7.45763666 L58.9790153,7.45763666 C60.330912,7.45763666 60.7142857,6.87718256 60.7142857,4.32733064 Z M61.4205004,11.7695814 C61.4205004,8.45270083 60.6739306,7.93443824 58.7974173,7.93443824 L57.5262308,7.93443824 L57.5262308,14.9620789 C57.5262308,15.0242704 57.566586,15.0450009 57.6472962,15.0450009 L59.0597256,15.0450009 C60.8151735,15.0450009 61.4205004,14.4852773 61.4205004,11.7695814 Z M78.2485876,15.542533 L71.9935432,15.542533 C71.9531881,15.542533 71.9531881,15.0450009 71.9935432,15.0450009 L73.6077482,15.0450009 C73.6682809,15.0450009 73.708636,15.0035399 73.6884584,15.0035399 L72.3970944,10.8574392 L68.1194512,10.8574392 L67.0298628,14.1743198 C66.8079096,14.9206179 66.787732,15.0450009 66.8684423,15.0450009 L68.4422922,15.0450009 C68.5028249,15.0450009 68.5028249,15.542533 68.4422922,15.542533 L64.6287328,15.542533 C64.5883777,15.542533 64.5883777,15.0450009 64.6287328,15.0450009 L66.1218725,15.0450009 C66.3034705,15.0450009 66.3438257,14.9828094 66.5859564,14.1743198 L71.0451977,0.55437901 C71.0653753,0.4921875 71.4891041,0.4921875 71.5092817,0.55437901 L76.4124294,15.0035399 C76.4124294,15.0035399 76.4729621,15.0450009 76.5536723,15.0450009 L78.2485876,15.0450009 C78.2889427,15.0450009 78.2889427,15.542533 78.2485876,15.542533 Z M72.2558515,10.3599071 L70.2986279,4.0992951 L68.2808717,10.3599071 L72.2558515,10.3599071 Z M91.787732,15.1693839 C91.4043584,15.6047245 90.8797417,15.8949516 90.0726392,15.8949516 C88.5189669,15.8949516 86.8442292,14.8376959 86.8442292,11.8732339 L86.8442292,10.5257512 C86.8442292,8.70146687 85.794996,8.14174327 84.0799031,8.14174327 L82.889427,8.14174327 L82.889427,14.9620789 C82.889427,15.0242704 82.9297821,15.0450009 83.0104923,15.0450009 L84.6448749,15.0450009 L84.6448749,15.542533 L78.5714286,15.542533 C78.5310734,15.542533 78.5310734,15.0450009 78.5714286,15.0450009 L80.2461663,15.0450009 C80.2865214,15.0450009 80.3268765,15.0242704 80.3268765,14.9620789 L80.3268765,1.42506016 C80.3268765,1.36286865 80.2865214,1.34213814 80.2461663,1.34213814 L78.5714286,1.34213814 C78.5310734,1.34213814 78.5310734,0.844606059 78.5714286,0.844606059 L84.4027441,0.844606059 C87.1872478,0.844606059 88.882163,2.42012432 88.882163,4.45171366 C88.882163,6.37965048 87.2276029,7.89297723 85.3914447,7.89297723 C88.1355932,7.89297723 89.4471348,9.75872254 89.4471348,11.9146949 L89.4471348,13.7804402 C89.4471348,14.8376959 89.8910412,15.1901144 90.5770783,15.1901144 C91.0815174,15.1901144 91.2429379,15.1279229 91.5052462,14.8169654 C91.5254237,14.7962349 91.8280872,15.1486534 91.787732,15.1693839 Z M86.3196126,4.53463567 C86.3196126,1.94332274 85.6941082,1.34213814 83.9386602,1.34213814 L83.0104923,1.34213814 C82.9297821,1.34213814 82.889427,1.36286865 82.889427,1.42506016 L82.889427,7.64421119 L84.0799031,7.64421119 C85.9362389,7.64421119 86.3196126,7.16740961 86.3196126,4.53463567 Z M105.952381,11.6451984 C105.952381,13.6145962 104.499596,15.542533 101.57385,15.542533 L95.2179177,15.542533 C95.1775626,15.542533 95.1775626,15.0450009 95.2179177,15.0450009 L96.8724778,15.0450009 C96.9330105,15.0450009 96.9733656,15.0242704 96.9733656,14.9620789 L96.9733656,1.42506016 C96.9733656,1.36286865 96.9330105,1.34213814 96.8724778,1.34213814 L95.2179177,1.34213814 C95.1775626,1.34213814 95.1775626,0.844606059 95.2179177,0.844606059 L100.686037,0.844606059 C103.107345,0.844606059 105.044391,1.94332274 105.044391,4.24440863 C105.044391,6.23453696 103.268765,7.7064027 101.836158,7.7064027 C103.97498,7.7064027 105.952381,9.17826845 105.952381,11.6451984 Z M102.723971,4.32733064 C102.723971,1.88113123 102.179177,1.34213814 100.363196,1.34213814 L99.6569814,1.34213814 C99.5762712,1.34213814 99.5359161,1.36286865 99.5359161,1.42506016 L99.5359161,7.45763666 L100.988701,7.45763666 C102.340597,7.45763666 102.723971,6.87718256 102.723971,4.32733064 Z M103.430186,11.7695814 C103.430186,8.45270083 102.683616,7.93443824 100.807103,7.93443824 L99.5359161,7.93443824 L99.5359161,14.9620789 C99.5359161,15.0242704 99.5762712,15.0450009 99.6569814,15.0450009 L101.069411,15.0450009 C102.824859,15.0450009 103.430186,14.4852773 103.430186,11.7695814 Z M118.220339,15.4803415 C118.220339,15.5218025 118.200161,15.542533 118.159806,15.542533 L107.768362,15.542533 C107.748184,15.542533 107.748184,15.0450009 107.768362,15.0450009 L109.443099,15.0450009 C109.483454,15.0450009 109.52381,15.0242704 109.52381,14.9620789 L109.52381,1.42506016 C109.52381,1.36286865 109.483454,1.34213814 109.443099,1.34213814 L107.768362,1.34213814 C107.748184,1.34213814 107.748184,0.844606059 107.768362,0.844606059 L113.861985,0.844606059 C113.902341,0.844606059 113.902341,1.34213814 113.861985,1.34213814 L112.207425,1.34213814 C112.146893,1.34213814 112.106538,1.36286865 112.106538,1.42506016 L112.106538,14.9620789 C112.106538,15.0242704 112.146893,15.0450009 112.207425,15.0450009 L113.680387,15.0450009 C116.525424,15.0450009 117.776433,12.702454 117.776433,10.5879427 C117.776433,10.5672122 118.220339,10.5672122 118.220339,10.5879427 L118.220339,15.4803415 Z M132.041969,15.542533 L125.786925,15.542533 C125.74657,15.542533 125.74657,15.0450009 125.786925,15.0450009 L127.40113,15.0450009 C127.461663,15.0450009 127.502018,15.0035399 127.48184,15.0035399 L126.190476,10.8574392 L121.912833,10.8574392 L120.823245,14.1743198 C120.601291,14.9206179 120.581114,15.0450009 120.661824,15.0450009 L122.235674,15.0450009 C122.296207,15.0450009 122.296207,15.542533 122.235674,15.542533 L118.422115,15.542533 C118.381759,15.542533 118.381759,15.0450009 118.422115,15.0450009 L119.915254,15.0450009 C120.096852,15.0450009 120.137207,14.9828094 120.379338,14.1743198 L124.838579,0.55437901 C124.858757,0.4921875 125.282486,0.4921875 125.302663,0.55437901 L130.205811,15.0035399 C130.205811,15.0035399 130.266344,15.0450009 130.347054,15.0450009 L132.041969,15.0450009 C132.082324,15.0450009 132.082324,15.542533 132.041969,15.542533 Z M126.049233,10.3599071 L124.09201,4.0992951 L122.074253,10.3599071 L126.049233,10.3599071 Z M143.341404,15.8534906 C143.341404,15.8742211 142.917676,15.8742211 142.897498,15.8534906 C142.857143,15.6047245 142.574657,15.2315755 142.05004,15.2315755 C141.182405,15.2315755 139.810331,15.8949516 138.761098,15.8949516 C135.209847,15.8949516 132.566586,12.3085745 132.566586,8.20393479 C132.566586,4.0785646 135.129136,0.4921875 138.66021,0.4921875 C139.5682,0.4921875 140.738499,1.05191109 141.606134,1.05191109 C142.150928,1.05191109 142.514124,0.782414548 142.554479,0.55437901 C142.554479,0.512918003 142.978208,0.512918003 142.978208,0.55437901 L142.978208,5.44677783 C142.978208,5.48823883 142.554479,5.48823883 142.554479,5.44677783 C142.554479,3.39445798 140.516546,0.989719583 138.66021,0.989719583 C137.812752,0.989719583 137.16707,1.17629411 136.602098,1.73601771 C135.734463,2.68962087 135.330912,4.74194071 135.330912,8.20393479 C135.330912,11.6866594 135.734463,13.6975182 136.602098,14.6511214 C137.16707,15.252306 137.91364,15.41815 138.761098,15.41815 C141.020985,15.41815 142.897498,13.1170641 142.897498,10.4013682 C142.897498,10.3599071 143.341404,10.3599071 143.341404,10.4013682 L143.341404,15.8534906 Z M158.958838,15.542533 L152.138822,15.542533 C152.098467,15.542533 152.098467,15.0450009 152.138822,15.0450009 L153.732849,15.0450009 C153.813559,15.0450009 153.853914,15.0035399 153.833737,15.0035399 L149.515738,8.2661263 L149.515738,14.9620789 C149.515738,15.0242704 149.556094,15.0450009 149.636804,15.0450009 L151.271186,15.0450009 C151.331719,15.0450009 151.331719,15.542533 151.271186,15.542533 L145.19774,15.542533 C145.157385,15.542533 145.157385,15.0450009 145.19774,15.0450009 L146.872478,15.0450009 C146.912833,15.0450009 146.953188,15.0242704 146.953188,14.9620789 L146.953188,1.42506016 C146.953188,1.36286865 146.912833,1.34213814 146.872478,1.34213814 L145.19774,1.34213814 C145.157385,1.34213814 145.157385,0.844606059 145.19774,0.844606059 L151.271186,0.844606059 C151.331719,0.844606059 151.331719,1.34213814 151.271186,1.34213814 L149.636804,1.34213814 C149.556094,1.34213814 149.515738,1.36286865 149.515738,1.42506016 L149.515738,8.14174327 L154.116223,2.21281929 C154.761905,1.40432965 154.72155,1.34213814 154.620662,1.34213814 L153.248588,1.34213814 C153.208232,1.34213814 153.208232,0.844606059 153.248588,0.844606059 L156.920904,0.844606059 C156.941082,0.844606059 156.941082,1.34213814 156.920904,1.34213814 L155.508475,1.34213814 C155.347054,1.34213814 155.306699,1.42506016 154.661017,2.21281929 L151.291364,6.54549451 L156.840194,15.0035399 C156.860371,15.0035399 156.981437,15.0450009 157.021792,15.0450009 L158.958838,15.0450009 C159.039548,15.0450009 159.039548,15.542533 158.958838,15.542533 Z M167.070218,15.542533 L161.985472,15.542533 C161.945117,15.542533 161.945117,15.0450009 161.985472,15.0450009 L163.337369,15.0450009 C163.418079,15.0450009 163.458434,15.0242704 163.458434,14.9620789 L163.458434,7.29179263 C163.458434,7.22960112 163.418079,7.20887062 163.337369,7.20887062 L161.985472,7.20887062 C161.945117,7.20887062 161.945117,6.71133854 161.985472,6.71133854 L167.070218,6.71133854 C167.090395,6.71133854 167.090395,7.20887062 167.070218,7.20887062 L165.698144,7.20887062 C165.597256,7.20887062 165.577078,7.22960112 165.577078,7.29179263 L165.577078,14.9620789 C165.577078,15.0242704 165.597256,15.0450009 165.698144,15.0450009 L167.070218,15.0450009 C167.090395,15.0450009 167.090395,15.542533 167.070218,15.542533 Z M178.087167,12.8682981 C178.087167,17.1802428 176.069411,21.4921875 172.760291,21.4921875 C170.984665,21.4921875 169.915254,19.9995913 169.915254,19.2325626 C169.915254,18.7350305 170.177563,18.216768 170.843422,18.216768 C171.529459,18.216768 171.791768,18.631378 171.791768,19.0252576 C171.791768,19.3776761 171.630347,19.5227897 171.630347,19.8544777 C171.630347,20.5800453 172.074253,20.9946554 172.760291,20.9946554 C175.020178,20.9946554 175.585149,17.9887324 175.726392,14.2365113 C175.383374,14.9828094 174.455206,15.376689 173.567393,15.376689 C171.125908,15.376689 169.309927,13.3658301 169.309927,10.9403612 C169.309927,8.53562284 171.125908,6.52476401 173.567393,6.52476401 C176.089588,6.52476401 178.087167,8.39050932 178.087167,12.8682981 Z M175.887813,10.8989002 C175.887813,8.76365838 175.585149,7.93443824 174.979822,7.41617565 C174.616626,7.1052181 174.152542,7.00156558 173.567393,7.00156558 C173.002421,7.00156558 172.639225,7.1052181 172.296207,7.41617565 C171.69088,7.93443824 171.529459,8.80511939 171.529459,10.9403612 C171.529459,12.8061066 171.69088,13.9462842 172.296207,14.4645468 C172.639225,14.7755044 173.002421,14.8791569 173.567393,14.8791569 C174.91929,14.8791569 175.544794,14.1121283 175.74657,13.5316742 C175.82728,13.2414471 175.887813,11.6451984 175.887813,10.8989002 Z M189.063761,11.4793543 C189.063761,13.7804402 187.16707,15.7291075 184.826473,15.7291075 C182.36481,15.7291075 180.508475,13.7597097 180.508475,9.44776499 C180.508475,5.13582027 182.485876,0.782414548 185.552865,0.782414548 C187.187248,0.782414548 188.196126,2.17135828 188.196126,2.93838691 C188.196126,3.41518849 187.974173,3.93345107 187.288136,3.93345107 C186.622276,3.93345107 186.319613,3.53957151 186.319613,3.14569194 C186.319613,2.79327338 186.481033,2.66889036 186.481033,2.2957413 C186.481033,1.57017368 186.097659,1.23848562 185.552865,1.23848562 C183.494754,1.23848562 182.788539,4.47244416 182.687651,8.36977881 C183.171913,7.60275019 184.079903,7.25033163 184.826473,7.25033163 C187.16707,7.25033163 189.063761,9.19899895 189.063761,11.4793543 Z M186.864407,11.4793543 C186.864407,9.73799204 186.662631,8.59781435 186.097659,8.12101277 C185.754641,7.81005522 185.371267,7.74786371 184.826473,7.74786371 C183.615819,7.74786371 182.707829,8.66000586 182.707829,9.4684955 L182.707829,11.5830068 C182.707829,13.6145962 183.03067,14.3816248 183.575464,14.8584264 C183.918483,15.1486534 184.342211,15.2315755 184.826473,15.2315755 C185.371267,15.2315755 185.754641,15.1486534 186.097659,14.8584264 C186.662631,14.3816248 186.864407,13.5109437 186.864407,11.4793543 Z M200,11.4793543 C200,13.7804402 198.103309,15.7291075 195.762712,15.7291075 C193.301049,15.7291075 191.444713,13.7597097 191.444713,9.44776499 C191.444713,5.13582027 193.422115,0.782414548 196.489104,0.782414548 C198.123487,0.782414548 199.132365,2.17135828 199.132365,2.93838691 C199.132365,3.41518849 198.910412,3.93345107 198.224374,3.93345107 C197.558515,3.93345107 197.255851,3.53957151 197.255851,3.14569194 C197.255851,2.79327338 197.417272,2.66889036 197.417272,2.2957413 C197.417272,1.57017368 197.033898,1.23848562 196.489104,1.23848562 C194.430993,1.23848562 193.724778,4.47244416 193.62389,8.36977881 C194.108152,7.60275019 195.016142,7.25033163 195.762712,7.25033163 C198.103309,7.25033163 200,9.19899895 200,11.4793543 Z M197.800646,11.4793543 C197.800646,9.73799204 197.59887,8.59781435 197.033898,8.12101277 C196.69088,7.81005522 196.307506,7.74786371 195.762712,7.74786371 C194.552058,7.74786371 193.644068,8.66000586 193.644068,9.4684955 L193.644068,11.5830068 C193.644068,13.6145962 193.966909,14.3816248 194.511703,14.8584264 C194.854722,15.1486534 195.27845,15.2315755 195.762712,15.2315755 C196.307506,15.2315755 196.69088,15.1486534 197.033898,14.8584264 C197.59887,14.3816248 197.800646,13.5109437 197.800646,11.4793543 Z" id="CAFEBARBLACK1966"></path>
            </g>
        </g>
    </g>
</svg>